<?xml version="1.0" encoding="utf-8"?>
<!-- Generator: Adobe Illustrator 16.0.3, SVG Export Plug-In . SVG Version: 6.00 Build 0)  -->
<!DOCTYPE svg PUBLIC "-//W3C//DTD SVG 1.1//EN" "http://www.w3.org/Graphics/SVG/1.1/DTD/svg11.dtd">
<svg version="1.1" id="team_logos" xmlns="http://www.w3.org/2000/svg" xmlns:xlink="http://www.w3.org/1999/xlink" x="0px" y="0px"
	 width="200px" height="200px" viewBox="0 0 200 200" enable-background="new 0 0 200 200" xml:space="preserve">
<g id="lions">
	<g>
		<path d="M174.314,73.214c0,0,2.396-2.062,4.91-2.017c2.516,0.043,4.26,0.883,5.198,1.891c0,0,2.004-0.271,4.181,0.327
			c2.172,0.597,5.239,2.387,6.436,4.476c1.193,2.088,1.334,4.491,0.09,6.763c0,0,0.421,1.548-0.604,3.466
			c-1.021,1.918-2.689,2.911-2.689,2.911s-1.145,2.844-4.127,4.163c-2.982,1.323-6.9-0.171-6.9-0.171s-2.224,0.433-3.904,0.43
			c-1.686-0.002-4.041-0.724-4.76-1.065c0,0-2.004,2.93-2.556,3.637c0,0,2.731,2.371,5.716,3.309
			c2.983,0.936,5.33,1.363,6.691,2.344c1.363,0.981,1.879,1.94,1.879,1.94s2.085-0.32,4.089,0.146
			c2.004,0.471,4.349,2.047,5.884,4.137c1.531,2.089,2.469,4.773,1.83,7.332c-0.639,2.558-2.1,3.486-2.1,3.486
			s-0.712,2.354-2.161,3.803s-3.511,1.543-3.511,1.543s-1.135,1.525-4.078,1.992c-2.941,0.469-5.049-1.156-5.049-1.156
			s-2.323,0.263-5.479-0.719c-3.154-0.98-5.316-4.211-5.316-4.211s-2.057-0.988-5.85-1.16c-3.793-0.168-12.273-1.875-16.049-4.069
			c0,0-2.215,1.069-8.941,1.42c0,0-0.996-3.038-2.942-4.562c0,0-5.784,3.205-7.615,4.059c-1.833,0.853-5.228,2.33-8.177,2.508
			c0,0-0.773,4.825-2.184,7.423c-1.402,2.601-4.104,4.534-6.398,5.294c0,0,3.332,1.186,5.079,3.785
			c1.747,2.602,2.346,5.457,1.151,7.76c-1.192,2.303-2.541,2.924-2.541,2.924s-0.682,2.323-3.375,3.535
			c-2.693,1.211-6.086,0.565-6.086,0.565s-1.867,0.983-4.438,0.965c-2.573-0.021-5.796-2.21-5.796-2.21s-8.427,0.773-10.935,0.564
			c-2.506-0.207-5.481-1.246-6.893-4.947c0,0-1.539,1.287-3.84,2.396c-2.301,1.105-6.665,3.242-9.79,5.479l0.104,1.662
			c0,0,4.571,1.724,4.87,6.412c0.299,4.688-2.266,6.432-2.987,6.924c0,0-0.978,2.111-3.066,3.178
			c-2.089,1.066-4.392,0.57-4.392,0.57s-5.155,2.287-9.077-1.465c-3.921-3.752-2.813-7.801-2.771-8.781s0.321-9.571,0.289-9.963
			c0,0-1.952-2.608-1.524-5.553c0.425-2.939,2.684-4.773,3.749-5.668c1.066-0.896,2.345-2.386,2.984-4.646
			c0.64-2.26,0.683-6.862,0.896-8.567c0.212-1.706,0.299-4.559,0.299-4.559s-7.715-2.134-11.722-6.608
			c-4.006-4.477-5.115-7.716-6.137-12.147c-1.023-4.432-1.748-8.905-5.819-11.42c0,0-2.665,0.766-5.733-0.472
			c-3.07-1.235-4.945-3.708-6.906-6.138c-1.96-2.43-8.95-3.537-11.423-3.666c0,0,5.243-5.795,12.319-8.27
			c7.076-2.471,10.443-1.492,12.787-0.169c2.345,1.32,4.19,3.547,5.058,6.567c0,0,4.616,1.999,7.772,5.707
			c3.153,3.708,4.644,6.991,5.669,11.039c1.022,4.049,2.307,8.965,10.446,10.747c0,0,4.813-4.821,6.646-6.018
			c1.833-1.192,4.134-1.869,4.796-2.062c0.659-0.195,3.757-1.203,3.757-1.203s4.866-3.966,5.657-4.762c0,0,1.816-3.225,2.968-5.1
			c1.15-1.875,2.952-3.738,2.952-3.738s-2.363-4.384-2.231-9.189c0,0,1.162,0.523,2.202,0.675c0,0-0.067-3.559,2.234-6.841
			c2.301-3.284,4.625-5.341,4.625-5.341s-0.173-4.324,2.439-8.422c0,0-1.992-3.201-2.162-5.248c0,0,3.324-0.298,5.84-1.023
			c2.514-0.724,3.75-1.235,5.03-2.771c1.277-1.534,4.348-5.285,8.225-7.119c3.88-1.832,8.187-2.503,11.275-2.253
			c0,0-1.896-1.624-3.984-2.307c0,0,3.566-2.632,10.605-3.383c0,0,0.049-3.564,0.814-5.439c0,0,9.336,6.393,14.022,8.226
			c4.691,1.834,8.101,2.43,10.53,3.624c2.43,1.193,4.141,3.395,4.542,4.746c0,0,2.617,1.008,4.621,2.414
			c2.004,1.407,3.157,4.802,3.157,4.802s3.789,1.508,7.711,3.894c3.922,2.388,8.734,7.42,8.734,7.42s-3.033,1.332-5.605,5.053
			C177.452,67.045,176.262,71.18,174.314,73.214"/>
		<path fill="#FFFFFF" d="M168.828,74.939c0,0,1.764-0.039,3.314,0.393c1.551,0.434,2.531,0.945,2.531,0.945
			s1.145-0.728,1.721-1.233c0.578-0.504,2.309-1.405,3.857-1.152c1.55,0.251,2.646,1.354,2.928,1.831c0,0,1.326,0.078,2.553,0.008
			c1.227-0.073,3.494,0.358,5.299,1.801c1.803,1.443,3.46,3.574,1.261,6.419c0,0,0.472,1.801-0.181,3.099
			c-0.647,1.298-2.323,2.009-2.323,2.009s-1.026,3.073-3.444,3.866c-2.414,0.793-5.445-0.692-5.445-0.692s-2.844,0.692-4.899,0.548
			c-2.054-0.143-4.3-1.877-4.3-1.877s-0.493,0.292-0.963,0.977c-0.467,0.685-4.008,5.645-4.834,6.517c0,0,3.464,3.36,6.891,4.765
			c3.423,1.405,5.154,1.624,6.055,1.875c0.902,0.253,2.885,1.371,3.605,3.534c0,0,2.199-0.54,3.642-0.436
			c1.441,0.109,2.849,0.398,5.37,2.993c2.523,2.595,1.946,4.938,1.551,6.021c-0.395,1.082-1.89,2.011-1.89,2.011
			s-0.129,2.172-1.427,3.323c-1.301,1.154-3.059,0.955-3.059,0.955s-0.691,1.315-2.494,1.857c-1.804,0.541-3.75-0.4-4.65-1.119
			c0,0-3.712,0.324-6.128-0.863c-2.415-1.188-3.548-3.522-3.548-3.522s-4.096-1.666-8.348-1.705
			c-4.254-0.035-12.49-2.335-15.186-4.303c0,0-4.102,1.86-7.401,1.909c0,0-1.012-3.086-4.589-5.231c0,0-7.648,4.238-10.388,5.498
			c-2.738,1.261-7.56,1.718-8.267,1.796c0,0,0.301,1.161-0.062,3.036c-0.36,1.873-1.513,5.551-2.488,6.774
			c-0.973,1.226-3.677,2.742-5.263,3.318s-3.566,1.081-5.229,1.91c-1.658,0.828-3.676,2.516-4.56,3.312c0,0,2.549,0.646,3.319,0.612
			c0.771-0.03,2.144-0.788,3.15-1.187c1.012-0.396,3.856-0.936,6.129,0.757c2.272,1.696,3.461,3.896,3.391,5.554
			c-0.073,1.657-1.145,2.86-2.734,3.682c0,0-0.475,2.339-2.457,3.059c-1.982,0.723-5.285,0.064-5.285,0.064
			s-1.564,1.018-3.439,1.125c-1.875,0.109-4.396-1.514-4.793-1.729c-0.398-0.219-0.793-0.434-1.479-0.434s-8.111,0.611-10.418,0.611
			c-2.307,0-3.893-1.117-4.867-2.921c-0.972-1.802,0.397-4.686,1.262-5.838c0.866-1.153,2.235-2.741,2.414-3.065
			c0.182-0.324,0.218-0.865-0.25-1.188c-0.469-0.324-1.974-1.062-1.974-1.062s-2.28,4.559-3.145,6.106
			c-0.865,1.55-1.983,3.28-4.146,4.615c-2.164,1.333-6.74,3.353-9.156,4.832c-2.415,1.478-3.851,2.837-3.851,2.837
			s0.024,4.348,0.153,4.883c0,0,2.183,0.428,3.049,1.184c0.865,0.758,1.73,1.98,1.694,3.678c-0.036,1.693-0.262,3.688-2.367,4.473
			c0,0-0.589,2.195-2.247,2.844c-1.658,0.648-3.353,0.074-3.353,0.074s-2.271,1.151-4.65,0.646
			c-2.379-0.504-4.362-2.955-4.398-5.443c-0.036-2.488,0.396-11.5,0.396-12.078c0-0.574,0-1.188-0.432-1.98
			c-0.433-0.793-1.441-2.772-1.189-4.036c0.251-1.263,1.549-2.74,2.74-3.748c1.189-1.011,2.632-2.021,3.352-4.04
			c0.722-2.018,1.335-4.793,1.407-6.919c0.071-2.129,0.333-9.046,0.797-10.923c0,0-8.945-1.983-12.984-6.601
			c-4.037-4.612-4.723-8.29-5.875-13.229c-1.154-4.938-2.621-8.717-7.332-11.172c0,0-2.51,1.221-5.755-0.183
			c-3.243-1.406-5.01-5.083-6.74-6.381c-1.73-1.295-6.436-2.048-7.381-2.014c0,0,5.615-3.897,9.472-5.049
			c3.858-1.155,8.039-1.516,10.671,0.575c2.632,2.09,3.027,5.695,3.027,5.695s5.409,2.236,8.544,6.092
			c3.137,3.858,4.073,7.462,4.686,9.878c0.613,2.416,2.52,7.244,5.568,9.373c3.049,2.127,6.628,3.027,8.497,3.153
			c0,0,5.258-5.497,7.06-6.687c1.802-1.19,3.822-1.66,4.686-1.912c0.868-0.252,3.861-1.24,3.861-1.24s5.308-4.574,6.33-5.36
			c0,0,3.076-5.331,3.941-6.591c0.865-1.262,3.188-4.23,3.188-4.23s-2.13-2.423-2.101-5.569c0,0,1.255,0.245,2.048,0.175
			c0,0-1.045-1.767-0.541-4.254c0.504-2.487,3.203-6.53,6.81-9.628c0,0-0.141-2.629,0.616-5.116
			c0.758-2.488,2.298-4.478,2.298-4.478s-1.65-2.035-1.902-3.629c0,0,3.1-0.294,5.265-1.014c2.162-0.722,3.892-2.257,3.892-2.257
			s4.146-5.71,9.193-7.513c5.047-1.803,10.191-1.25,10.191-1.25s2.559-1.659,3.608-2.025c0,0-2-2.255-3.664-2.951
			c0,0,3.892-1.175,7.478-0.897c0,0,0.066-2.495,0.473-3.939c0,0,6.247,4.503,9.096,5.764c2.846,1.262,8.291,3.064,10.129,3.641
			c1.84,0.577,4.961,1.777,5.616,5.106c0,0,3.034,1.275,4.226,1.924c1.189,0.648,2.414,2.199,2.666,2.848
			c0.252,0.648,0.502,1.449,0.81,1.95c0.31,0.501,0.851,0.862,1.354,1.042c0.504,0.18,5.515,2.415,7.822,4.146
			c2.307,1.732,5.443,4.722,5.443,4.722s-3.131,2.493-3.891,3.643c0,0-0.941,3.135-2.455,5.37c-1.516,2.234-3.783,3.106-3.783,3.106
			v0.753H168.828z"/>
		<path fill="#006DB0" d="M142.062,82.4c-2.732-2.938-11.976-4.754-20.761-1.456c8.785-4.755,16.933-3.38,21.115-1.232
			c3.998,2.052,3.638,5.334,3.569,5.781c-0.006,0.017-0.008,0.034-0.01,0.052c0,0,2.928-0.583,4.974-1.833
			c0.173-2.748,1.733-5.523,4.28-5.383c2.847,0.159,6.795,2.266,6.795,2.266c-5.457,4.406-15.469,8.063-19.002,8.799
			C143.025,89.395,145.463,86.059,142.062,82.4 M107.105,81.315c-5.994,1.418-10.706-0.738-10.706-0.738
			c8.247-0.293,12.157-2.623,20.325-6.958c8.168-4.336,16.801-0.713,16.801-0.713c-6.064-0.896-10.678,0.667-14.145,2.356
			C116.355,76.74,112.779,79.972,107.105,81.315 M127.723,63.913c8.516,1.552,12.301,7.948,12.301,7.948s-6.403-5.162-13.23-5.879
			c-6.828-0.718-13.238,1.846-13.238,1.846S119.202,62.359,127.723,63.913 M156.525,54.855c0.854,0,2.634,1.159,3.871,1.237
			c0,0-1.082,1.472-1.237,1.857c-0.155,0.388,0.465,1.162,0.465,1.162s-2.478-1.857-3.251-2.4c-0.773-0.542-3.715-1.16-3.715-1.16
			S155.676,54.855,156.525,54.855 M162.123,98.499c2.967-2.68,5.936-8.137,7.372-9.381c1.437-1.244,3.255-0.957,3.255-0.957
			s1.34,1.82,3.734,1.914c2.393,0.098,4.5-0.669,4.5-0.669s3.541,1.437,4.787,0.767c1.244-0.673,1.916-3.256,1.916-3.256
			s2.01-0.383,2.106-1.341c0.095-0.957-0.671-2.488-0.671-2.488s1.34-0.862,1.531-1.436c0.193-0.576-0.479-1.34-1.055-1.82
			c-0.574-0.478-2.681-1.627-3.73-1.435c-1.055,0.19-4.312-0.096-4.312-0.096s-0.479-1.341-1.338-1.627
			c-0.861-0.288-1.822,0.096-2.395,0.669c-0.576,0.576-2.299,1.726-3.16,1.726c-0.865,0-1.531-0.863-4.214-1.343
			c-2.683-0.478-4.31,0.767-4.31,0.767s0.25-1.983,0.106-3.365c-0.013-0.118-0.567,0.031-0.586-0.092c-0.07-1.306,0-3.245,0-3.245
			c-0.285,0.766-2.825,4.216-5.027,3.067c-2.202-1.148-1.577-5.271-1.577-5.271c3.446-2.106,8.329-1.817,8.329-1.817
			c0.957,2.105-0.286,4.212-0.286,4.212c4.116-1.34,5.073-6.416,5.553-7.469c0.479-1.053,2.68-2.298,2.68-2.298
			s-2.199-2.011-4.498-3.448c-2.299-1.435-6.514-3.254-7.277-3.542c-0.766-0.287-1.723-1.917-1.912-2.49
			c-0.19-0.573-0.766-2.298-2.205-3.063c-1.438-0.766-5.555-2.49-5.555-2.49s0.574-0.861-0.381-2.393
			c-0.959-1.532-4.404-2.202-10.055-4.117c-5.648-1.917-9.48-5.361-9.48-5.361c-0.189,1.627,1.055,3.063,1.055,3.063
			c-1.817-0.861-6.797-1.054-6.797-1.054c2.297,0.862,3.928,2.778,3.928,2.778c-1.918,0-4.979,1.819-4.979,1.819
			c2.488,0,3.541,1.34,3.541,1.34c-2.3,1.054-7.303-0.476-12.925,0.382c-5.624,0.859-9.289,5.267-9.289,5.267
			c2.396-0.862,3.93-0.095,3.93-0.095c-1.918,0.095-6.897,3.254-8.812,4.307c-1.914,1.054-4.692,0.958-4.692,0.958
			c0.671,1.436,2.489,1.819,2.489,1.819c-2.489,1.723-3.83,5.744-3.83,5.744c1.436-1.626,3.542-1.531,4.021-0.573
			s-0.182,2.73-2.104,4.117c-1.554,1.12-5.363,4.309-7.374,7.181c-2.011,2.872-2.325,5.139-2.325,5.139
			c2.406-0.986,3.226-0.133,3.045,1.052c-0.321,2.01-3.871,3.573-3.871,3.573c0.861,1.436,4.111,1.534,4.111,1.534
			s-3.831,4.212-5.363,6.51c-1.532,2.298-4.118,6.894-4.597,7.565c-0.477,0.669-6.127,5.17-6.798,5.84
			c-0.669,0.669-6.415,2.106-7.853,2.776c-1.434,0.67-6.317,5.265-7.944,7.371c-0.099,0.129-0.193,0.254-0.283,0.379
			c-2.326-0.164-7.736-0.869-11.398-3.9c-4.772-3.952-5.892-8.651-6.712-11.857c-0.818-3.206-2.162-5.644-4.027-8.029
			c-1.863-2.385-7.606-5.245-8.576-5.841c0,0-0.713-4.036-2.684-5.37c-2.125-1.438-4.913-1.143-6.098-0.845
			c-0.359,0.09-0.839,0.254-1.372,0.456c1.109,0.105,2.114,0.348,2.936,0.561c2.703,0.702,2.881,2.599,2.881,2.599
			s-3.48-3.773-10.506-1.034c0.555,0.088,2.601,0.501,3.643,1.87c1.18,1.548,1.517,2.69,4.877,4.549
			c3.001,1.662,5.28-0.176,5.28-0.176s5.116,2.642,6.785,5.591c1.611,2.845,3.207,7.309,3.952,11.261
			c0.746,3.953,2.312,7.011,5.818,10.068c3.118,2.721,9.777,4.553,12.887,5.137c-0.089,0.287-0.181,0.59-0.276,0.9
			c-0.768,2.49-0.768,6.99-1.054,11.873s-1.34,7.658-2.49,9.766c-1.148,2.106-4.691,4.117-4.978,5.36
			c-0.286,1.247,1.341,2.587,1.532,4.503c0.191,1.915-0.287,9.958-0.287,11.105c0,1.148-0.288,2.584,0.383,3.639
			c0.67,1.053,1.723,1.628,3.16,1.438c1.436-0.192,2.012-1.055,2.012-1.055s2.106,0.861,3.063,0.288
			c0.958-0.575,0.861-2.487,0.861-2.487s1.436,0,1.819-0.481c0.384-0.478,0.479-2.202-0.191-3.062
			c-0.669-0.861-4.021-1.15-4.021-1.15c-0.19-0.383-0.766-6.895-0.287-8.33c0.479-1.438,4.309-3.641,7.277-5.36
			c2.968-1.726,6.99-3.159,8.425-4.692c1.168-1.246,4.251-7.432,5.364-9.701c0.065-0.141,3.755-9.223,12.587-13.244l0.068-0.041
			c-6.46,5.734-7.012,7.893-7.012,7.893s4.299-4.08,11.775-7.246c4.972-2.104,8.784-3.033,11.271-3.271
			c-6.168,1.966-11.43,4.946-16.729,8.137c-5.415,3.263-8.861,7.515-9.066,7.771c4.778,1.898,4.416,3.941,3.999,5.108
			c-0.478,1.341-3.447,4.31-3.926,5.649c-0.479,1.341-0.288,2.775,2.106,2.969c2.394,0.189,8.999-0.671,11.106-0.574
			c2.106,0.098,3.447,2.203,5.458,2.203c2.012,0,2.969-1.343,2.969-1.343c1.437,0.479,4.02,0.769,5.074,0.288
			c1.055-0.479,0.862-2.489,0.862-2.489c1.722-0.288,2.774-1.149,2.487-2.104c-0.287-0.959-0.955-2.203-2.394-3.065
			s-2.774-0.574-3.829-0.097c-1.052,0.479-2.492,1.34-4.021,1.15c-1.531-0.191-7.276-1.438-7.276-1.438
			c1.53-4.212,6.415-7.277,8.618-8.043c2.199-0.768,6.415-2.106,8.043-3.446c1.626-1.34,2.584-6.129,2.68-7.086
			c0.096-0.956-0.765-4.022-0.765-4.022c1.722-0.285,6.222-0.19,9.669-1.53c2.031-0.792,5.857-2.845,8.658-4.397
			c-6.145-3.548-18.422-2.65-18.422-2.65c12.902-2.687,21.828,0.729,21.828,0.729c4.211,1.244,6.316,5.269,6.316,5.269
			c2.684-0.385,6.129-2.015,6.129-2.015C153.926,106.764,162.123,98.499,162.123,98.499"/>
		<path fill="#006DB0" d="M190.656,115.16c-0.289-1.243-1.725-3.062-3.258-3.926c-1.528-0.86-3.254-0.094-4.594,0
			c-1.342,0.098-2.492-0.957-2.777-1.627c-0.287-0.67-1.15-1.916-2.299-2.106c-1.148-0.188-3.734-0.86-7.277-2.489
			c-2.109-0.971-4.666-3.1-6.385-4.659c-1.536,1.588-3.898,3.911-6.524,6.073c-2.728,2.249-6.207,4.434-8.569,5.828
			c5.694,2.712,12.43,3.059,15.543,3.387c3.64,0.383,7.371,2.105,7.371,2.105s0.482,2.105,2.779,3.16
			c2.297,1.054,5.646,0.478,5.646,0.478s1.726,1.726,3.162,1.245c1.436-0.479,1.531-2.395,1.531-2.395s1.817,0.957,2.777,0.289
			c0.958-0.672,0.669-3.352,0.669-3.352C189.602,117.173,190.941,116.405,190.656,115.16"/>
	</g>
</g>
</svg>
