<?xml version="1.0" encoding="utf-8"?>
<!-- Generator: Adobe Illustrator 16.0.3, SVG Export Plug-In . SVG Version: 6.00 Build 0)  -->
<!DOCTYPE svg PUBLIC "-//W3C//DTD SVG 1.1//EN" "http://www.w3.org/Graphics/SVG/1.1/DTD/svg11.dtd">
<svg version="1.1" id="team_logos" xmlns="http://www.w3.org/2000/svg" xmlns:xlink="http://www.w3.org/1999/xlink" x="0px" y="0px"
	 width="200px" height="200px" viewBox="0 0 200 200" enable-background="new 0 0 200 200" xml:space="preserve">
<g id="rams">
	<g>
		<path fill="#FFFFFF" d="M136.062,32.024c-14.176,1.778-26.379,8.473-34.362,18.854c-0.621,0.81-1.211,1.671-1.785,2.552
			c-0.081,0.015-0.268,0.052-0.268,0.052c-45.266,7.049-81.15,36.526-82.657,37.776L4,102.042l16.828,1.353
			c29.662,2.387,50.655,12.766,63.045,21.049c13.57,9.076,20.102,17.697,20.166,17.783c-0.012-0.013,2.521,3.431,2.521,3.431
			l1.861,2.534l5.627-4.834c0.954-0.818,1.82-1.756,2.6-2.793c0.026,0.021,0.191,0.172,0.191,0.172
			c0.003,0.003,1.273,1.062,1.273,1.062c0.841,0.678,1.529,1.253,2.398,2.235c0.211,0.474,0.336,1.011,0.336,1.618
			c0,1.519-0.183,1.951-0.586,2.895l-0.197,0.457c-0.482,1.152-1.396,2.824-1.403,2.838l-1.384,2.529l25.057,14.076
			c0,0,2.529-0.703,2.582-0.719c0.057-0.016,4.643-1.189,4.643-1.189c5.694-1.418,9.314-2.354,11.438-3.366
			c0.003-0.005,1.86-0.901,1.86-0.901l1.067-1.771c0.306-0.515,7.408-12.51,10.917-29.201c0.999-0.907,4.711-4.284,4.711-4.284
			l0.106-1.121l0.146-1.527c0.127-1.376,0.191-2.768,0.191-4.149c0-2.489-0.214-5.079-0.609-7.714
			c8.219-4.57,11.771-11.18,13.949-16.549c1.775-4.38,2.664-9.299,2.664-14.404c0-5.041-0.863-10.261-2.598-15.318
			c-2.799-8.175-9.152-19.706-23.545-28.204l0,0C160.898,32.737,148.268,30.494,136.062,32.024z"/>
		<path fill="#002A5C" d="M119.461,133.885c0.098,0.083,0.193,0.166,0.291,0.256l-0.012-0.082
			C119.74,134.059,119.639,134.003,119.461,133.885z"/>
		<g>
			<path fill="#002A5C" d="M161.885,92.58c-0.133,0.139-0.271,0.282-0.414,0.42l0.25-0.242
				C161.777,92.703,161.832,92.641,161.885,92.58z"/>
		</g>
		<path fill="#C6A876" d="M168.378,40.537c-16.052-9.477-47.702-9.554-64.37,12.119c-0.835,1.088-1.609,2.229-2.318,3.405
			c-0.722,0.144-1.266,0.246-1.581,0.296C55.667,63.279,20.335,92.267,18.853,93.5l-7.484,6.211l9.694,0.781
			c58.749,4.728,85.052,39.644,85.313,39.996l2.53,3.445l3.24-2.785c1.773-1.524,2.99-3.318,3.851-5.063
			c0.791,0.724,1.687,1.513,2.767,2.465c1.473,1.288,2.592,1.948,4.239,3.908c0.558,1.035,0.761,2.147,0.761,3.196
			c0,2.389-0.463,3.156-1.012,4.473c-0.547,1.316-1.534,3.118-1.534,3.118l21.492,12.071l1.456-0.402l4.669-1.198
			c5.369-1.335,9.034-2.276,10.901-3.175l1.072-0.516l0.615-1.025c0.311-0.518,7.441-12.616,10.758-29.218
			c1.172-1.072,4.58-4.166,4.58-4.166l0.145-1.525c0.117-1.302,0.175-2.594,0.175-3.874c0-3.23-0.356-6.382-0.919-9.324
			c8.521-4.027,12.139-10.274,14.473-16.033C196.828,79.577,191.895,54.419,168.378,40.537z"/>
		<g>
			<path fill="#002A5C" d="M185.078,64.988c-13.6-32.868-50.941-26.308-50.941-26.308s0.104-0.007,0.295-0.026
				c1.91-0.149,12.98-0.793,24.067,3.786c9.735,4.018,20.606,14.028,23.239,27.253c0.625,3.144,0.871,6.05,0.871,8.69l-0.006,0.661
				c-0.125,8.102-2.562,13.549-3.386,15.256c-1.104,2.299-3.838,5.672-5.68,7.017c-1.554,1.138-2.979,1.615-4.072,1.615
				c-0.208,0-0.401-0.02-0.587-0.055h-0.005c-0.185-0.031-0.36-0.086-0.522-0.154c-1.027-0.476-1.381-1.707-3.732-5.014
				c-1.564-2.2-3.542-4.316-3.542-4.316c0.194-0.178,0.368-0.357,0.547-0.542h0.005c0.085-0.092,0.173-0.181,0.264-0.273
				c0.215-0.231,0.414-0.496,0.612-0.763c0.575-0.781,1.062-1.689,1.446-2.711c0.012-0.04,0.031-0.078,0.037-0.117
				c0.123-0.328,0.234-0.667,0.332-1.012c1.91-6.811-0.194-17.35-8.768-24.21c-9.117-7.299-18.964-7.9-26.943-4.704
				c-13.428,5.388-21.555,21.555-11.963,34.769c4.645,6.406,12.205,6.818,16.897,3.225c4.403-3.374,7.354-13.694-3.468-19.22
				c8.693-0.734,19.244,9.634,14.049,23.022c-0.382,0.974-0.827,1.891-1.328,2.742c-7.525,12.693-28.079,11.287-37.954-0.513
				c-9.622-11.504-11.258-26.911-6.636-39.742c0.336-0.938,0.709-1.859,1.111-2.77c-39.692,8.579-65.375,32.59-65.375,32.59
				c55.501,11.521,75.624,44.985,75.624,44.985c2.056-1.767,3.17-4.142,3.799-6.094c-3.85-6.301-2.163-12.207-2.163-12.207
				c0.841,4.241,2.396,7.357,3.94,9.586c0.659,0.931,3.719,3.926,4.317,4.45c0.179,0.118,0.278,0.173,0.278,0.173l0.013,0.084
				c2.782,2.467,6.085,5.24,6.672,6.297c2.988,5.365-0.13,11.467-0.13,11.467l16.8,9.199c3.742-1.059,12.511-2.972,14.929-4.131
				c0,0,7.444-12.455,10.539-29.254l4.4-4.003c0.055-0.589,0.092-1.175,0.118-1.76c0.007-0.199,0.012-0.403,0.017-0.603
				c0.016-0.379,0.02-0.76,0.02-1.14c0-0.245-0.004-0.489-0.008-0.731c-0.006-0.322-0.017-0.646-0.029-0.965
				c-0.016-0.272-0.024-0.552-0.041-0.818c-0.012-0.243-0.033-0.482-0.053-0.721c-0.104-1.269-0.248-2.517-0.438-3.729
				c-0.013-0.051-0.02-0.094-0.021-0.144c-0.076-0.463-0.155-0.922-0.24-1.375c-0.176-0.926-0.363-1.84-0.576-2.722
				c0.359-0.088,0.725-0.19,1.09-0.313c0.873-0.293,1.752-0.686,2.627-1.168C184.936,102.254,193.682,85.772,185.078,64.988z"/>
			<path fill="#FFFFFF" d="M182.609,78.383c0-2.64-0.246-5.546-0.871-8.69c-2.633-13.226-13.504-23.235-23.239-27.253
				c-11.087-4.579-22.157-3.935-24.067-3.786c-0.453,0.057-0.908,0.111-1.356,0.175c-15.109,2.138-24.291,12.934-24.291,12.934
				c13.673-10.693,34.2-11.956,47.782-6.386c13.576,5.572,23.438,16.871,26.039,33.669c0-0.052,0.004-0.101,0.004-0.15
				C182.604,78.731,182.604,78.561,182.609,78.383z"/>
		</g>
		<g>
			<g>
				<path fill="#FFFFFF" d="M138.496,144.348c0.143-0.678,2.093-0.818,2.093-0.818c1.382,4.902-0.769,8.049-0.894,8.513
					C139.594,149.82,139.988,145.695,138.496,144.348z"/>
			</g>
			<path fill="#FFFFFF" d="M104.844,103.086c-9.622-11.504-11.258-26.911-6.636-39.742c-2.761,4.249-9.1,16.855-1.258,34.222
				c9.511,21.057,35.544,21.887,44.299,8.711c0.592-0.896,1.104-1.793,1.549-2.68C135.271,116.292,114.719,114.886,104.844,103.086z
				"/>
		</g>
		<g>
			<path fill="#FFFFFF" d="M154.791,122.246c0-1.738,1.404-3.145,3.146-3.145c0.055,0,0.108,0.013,0.162,0.018
				c-0.371-1.748-1.146-3.65-2.611-5.518c0,0,0.121,1.86-0.28,3.457c-1.599,0.848-2.696,2.525-2.696,4.467
				c0,2.787,2.262,5.045,5.053,5.045c0,0,0.188-0.432,0.386-1.176c-0.007,0-0.013,0.002-0.013,0.002
				C156.195,125.396,154.791,123.986,154.791,122.246z"/>
			<path fill="#002A5C" d="M158.288,123.625c-0.033,0.08-0.062,0.16-0.101,0.24c-0.64,0.261-1.715,0.023-2.133-0.979
				c1.17,0.688,2.076-0.048,2.317-0.271c0.043-0.04,0.065-0.066,0.065-0.066S158.494,123.046,158.288,123.625z"/>
			<path fill="#FFFFFF" d="M158.439,122.549c0,0-0.023,0.026-0.066,0.066c-0.241,0.225-1.148,0.959-2.316,0.271
				c0.416,1.002,1.492,1.238,2.133,0.979c0.037-0.08,0.065-0.16,0.1-0.24C158.494,123.046,158.439,122.549,158.439,122.549z"/>
		</g>
		<path fill="#FFFFFF" d="M168.16,121.717c0.395-15.958-12.932-26.575-12.932-26.575s9.77,12.178,8.633,26.499l-2.661,2.474
			c0.042,3.884-0.136,11.266-3.901,19.53c-3.902-7.049-12.501-11.721-16.043-12.561c-2.414,1.363-7.763,4.305-10.883,7.762
			c0.547,0.752,1.312,2.778,1.425,3.441c0.714,3.92,0.181,6.764-0.431,8.822c0.007,0.008,5.959,3.328,5.874,3.164
			c1.626-5.633-0.538-8.178-2.195-11.065c1.612-0.985,5.347-3.073,7.089-3.806c1.764,2.435,2.674,6.447,0.776,12.168
			c-0.568,1.709-1.396,3.453-1.89,4.656c0.004,0.063,2.319,1.303,2.304,1.227c3.012-0.605,5.763-2.668,6.827-5.549
			c0.32-0.859,0.181-1.525,0.074-2.195c-0.299,0.377-0.701,0.973-1.188,1.307c-0.774-1.789-0.783-3.207,0.194-4.279
			c0.507-0.553,1.066-0.76,1.744-0.781c1.002-0.035,1.807,0.607,2.119,1.378c1.493,3.67-1.973,7.528-1.973,7.528
			s3.318-0.148,4.275-0.617c1.951-3.947,7.992-16.805,9.711-29.784L168.16,121.717z"/>
	</g>
</g>
</svg>
