<?xml version="1.0" encoding="utf-8"?>
<!-- Generator: Adobe Illustrator 17.0.2, SVG Export Plug-In . SVG Version: 6.00 Build 0)  -->
<!DOCTYPE svg PUBLIC "-//W3C//DTD SVG 1.1//EN" "http://www.w3.org/Graphics/SVG/1.1/DTD/svg11.dtd">
<svg version="1.1" id="Layer_1" xmlns="http://www.w3.org/2000/svg" xmlns:xlink="http://www.w3.org/1999/xlink" x="0px" y="0px"
	 width="234px" height="321.51px" viewBox="0 0 234 321.51" enable-background="new 0 0 234 321.51" xml:space="preserve">
<g>
	<path fill="#FFFFFF" d="M226.253,36.572c-10.061,7.218-29.305,17.056-54.063,10.956C129.281,36.958,117,0,117,0
		s-12.279,36.964-55.19,47.528c-24.771,6.1-44.011-3.742-54.063-10.956H0v199.295c0.003,5.042,1.23,14.964,9.408,24.898
		c10.096,12.266,27.222,20.22,50.892,23.64c18.853,2.729,32.794,8.655,42.624,18.114C110.146,309.471,117,321.51,117,321.51
		s7.115-12.29,14.076-18.991c9.83-9.459,23.776-15.387,42.624-18.114c23.668-3.419,40.795-11.374,50.894-23.639
		c8.17-9.927,9.399-19.86,9.406-24.898V36.572H226.253z"/>
	<path fill="#013369" d="M226.978,44.343c0,0-23.454,18.254-56.492,9.998C131.964,44.714,117,15.863,117,15.863
		s-14.963,28.852-53.486,38.478c-33.037,8.256-56.492-9.998-56.492-9.998v191.514c0.004,6.509,2.726,34.148,54.284,41.599
		c20.356,2.947,35.562,9.491,46.486,20.005c3.936,3.773,6.926,7.618,9.208,11.143c2.288-3.525,5.267-7.37,9.197-11.143
		c10.937-10.514,26.142-17.058,46.498-20.005c51.556-7.45,54.273-35.09,54.283-41.599V44.343z"/>
	<path fill="#FFFFFF" enable-background="new    " d="M117,289.107c0,0,14.963-18.443,53.845-24.441
		c44.538-6.873,43.214-27.784,43.217-28.845V135.523H19.938v100.298c0,1.056-1.315,21.971,43.217,28.845
		C102.036,270.666,117,289.107,117,289.107z"/>
	<g>
		<path fill="#D50A0A" d="M71.75,208.827l-0.007-47.701l-5.989-3.355v-12.369h27.261v12.369l-5.699,3.355v97.3l-14.572-4.366
			l-21.066-62.154l-0.004,40.977l6.689,5.138v12.628l-29.247-7.434v-10.765l6.692-2.617v-68.665l-6.854-3.396v-12.369h22.131
			L71.75,208.827z"/>
		<path fill="#D50A0A" d="M121.929,252.45l5.839,6.994v12.368l-28.97-10.824v-10.499l6.396-2.618v-86.745l-6.357-3.214v-12.51
			h50.303v25.172h-11.057l-3.351-10.335h-12.803v29.106h9.607l3.781-5.528h7.709v25.901h-7.709l-3.639-5.236h-9.75V252.45z"/>
		<path fill="#D50A0A" d="M153.909,256.83v-12.369l7.194-5.907v-77.428l-6.143-3.214v-12.51h29.006v12.51l-5.699,3.214v72.643
			l12.464-3.368l2.391-19.037h11.926v31.806L153.909,256.83z"/>
	</g>
	<g>
		<g>
			<path fill="#FFFFFF" d="M24.985,115.004l-8.779-6.605h10.729l3.542-10.165l3.543,10.165h10.73l-8.779,6.606l3.229,10.318
				l-8.723-6.129l-8.723,6.129L24.985,115.004z"/>
		</g>
		<g>
			<path fill="#FFFFFF" d="M63.076,115.004l-8.779-6.605h10.728l3.543-10.165l3.543,10.165h10.729l-8.779,6.606l3.231,10.318
				l-8.724-6.129l-8.723,6.129L63.076,115.004z"/>
		</g>
		<g>
			<path fill="#FFFFFF" d="M24.985,80.628l-8.779-6.605h10.729l3.542-10.166l3.543,10.166h10.73l-8.779,6.606L39.2,90.946
				l-8.723-6.129l-8.723,6.129L24.985,80.628z"/>
		</g>
		<g>
			<path fill="#FFFFFF" d="M63.076,80.628l-8.779-6.605h10.728l3.543-10.166l3.543,10.166h10.729l-8.779,6.606l3.231,10.317
				l-8.724-6.129l-8.723,6.129L63.076,80.628z"/>
		</g>
	</g>
	<g>
		<g>
			<path fill="#FFFFFF" d="M212.247,125.323l-8.724-6.13l-8.723,6.13l3.229-10.319l-8.778-6.606h10.729l3.543-10.164l3.542,10.164
				h10.729l-8.778,6.606L212.247,125.323z"/>
		</g>
		<g>
			<path fill="#FFFFFF" d="M174.155,125.323l-8.724-6.13l-8.723,6.13l3.229-10.319l-8.779-6.606h10.729l3.543-10.164l3.544,10.164
				h10.728l-8.779,6.606L174.155,125.323z"/>
		</g>
		<g>
			<path fill="#FFFFFF" d="M212.247,90.946l-8.724-6.129l-8.723,6.129l3.229-10.318l-8.778-6.606h10.729l3.543-10.165l3.542,10.165
				h10.729l-8.778,6.606L212.247,90.946z"/>
		</g>
		<g>
			<path fill="#FFFFFF" d="M174.155,90.946l-8.724-6.129l-8.723,6.129l3.229-10.318l-8.779-6.606h10.729l3.543-10.165l3.544,10.165
				h10.728l-8.779,6.606L174.155,90.946z"/>
		</g>
	</g>
	<path fill="#FFFFFF" d="M141.184,53.052c0,0-4.547,2.369-10.894,8.609c1.432,0.809,3.043,1.941,3.966,2.707
		c-0.958,0.851-1.938,1.767-2.849,2.629c-4.129-3.402-8.43-5.132-11.76-5.944c1.105-0.793,2.278-1.572,3.439-2.328
		c1.79,0.456,3.521,1.16,3.521,1.16c7.168-5.456,13.367-7.811,13.367-7.811s-0.719-0.353-2.635-0.327
		c-28.178,0.364-54.139,21.402-49.238,57.398c0.525,3.817,2.009,10.761,3.895,13.806c0.628-5.991,2.877-19.248,9.558-33.449
		c-2.321-0.832-4.248-1.176-4.248-1.176c0.682-1.432,1.631-3.256,1.631-3.256c4.942,0.932,9.31,3,13.092,5.997
		c-0.908,1.466-1.522,2.425-1.954,3.179c-1.326-1.044-2.666-1.945-4.144-2.764c-7.507,13.125-10.991,25.514-12.405,32.017
		c0.077,0.4,0.896,0.607,1.554,0.522c30.876-3.997,45.331-19.746,49.729-36.812c2.893-11.196,1.945-22.904-1.928-32.452
		C142.61,54.086,142.082,52.972,141.184,53.052z M114.636,87.054c-4.016-3.347-8.7-5.397-13.297-6.274c0,0,1.409-2.3,2.212-3.494
		c5.621,1.112,10.185,3.74,13.376,6.441C116.107,84.897,115.329,86.021,114.636,87.054z M119.705,79.935
		c-3.724-3.126-8.254-5.458-13.387-6.485c0.784-1.013,1.704-2.091,2.585-3.088c3.918,0.695,8.941,2.761,13.32,6.374
		C121.328,77.808,120.493,78.898,119.705,79.935z M125.351,73.144c-3.908-3.218-8.289-5.301-12.944-6.292
		c1.128-1.065,2.281-1.979,3.295-2.825c5.816,1.398,9.732,4.005,12.399,6.22C127.148,71.222,126.225,72.174,125.351,73.144z"/>
</g>
</svg>
